<svg xmlns="http://www.w3.org/2000/svg" width="359" height="160"><path fill="#37003C" fill-rule="evenodd" d="M-32-11v55.915c42.854 21.498 90.359 40.004 137.733 52.223l-29.951 30.035c70.45 22.639 154.342 33.425 232.286 33.425l-42.807 42.928c13.855.784 16.746.359 30.796.359 101.417 0 199.133-20.736 286.943-58.142V39.57c-72.491 39.428-165.395 67.77-251.27 76.8l50.29-50.436c-38.398 7.14-65.905 8.405-106.364 8.405-46.74 0-89.101-4.754-133.023-14.217l31.36-31.451C103.43 26.229 30.376 13.75-32-11z"/></svg>